<svg xmlns="http://www.w3.org/2000/svg" viewBox="0,0,256,256" width="64px" height="64px"><g transform="translate(-60.16,-60.16) scale(1.47,1.47)"><g fill="#000000" fill-rule="nonzero" stroke="none" stroke-width="1" stroke-linecap="butt" stroke-linejoin="miter" stroke-miterlimit="10" stroke-dasharray="" stroke-dashoffset="0" font-family="none" font-size="none" style="mix-blend-mode: normal"><g transform="scale(3.55556,3.55556)"><path d="M36,12c-13.255,0 -24,10.745 -24,24c0,13.255 10.745,24 24,24c13.255,0 24,-10.745 24,-24c0,-13.255 -10.745,-24 -24,-24zM36,20c8.837,0 16,7.163 16,16c0,8.837 -7.163,16 -16,16c-8.837,0 -16,-7.163 -16,-16c0,-8.837 7.163,-16 16,-16zM36,24c-2.209,0 -4,1.791 -4,4c0,2.209 1.791,4 4,4c2.209,0 4,-1.791 4,-4c0,-2.209 -1.791,-4 -4,-4zM36,35c-1.657,0 -3,1.343 -3,3v7c0,1.657 1.343,3 3,3c1.657,0 3,-1.343 3,-3v-7c0,-1.657 -1.343,-3 -3,-3z"></path></g></g></g></svg>