<svg xmlns="http://www.w3.org/2000/svg" xmlns:xlink="http://www.w3.org/1999/xlink" viewBox="0,0,256,256" width="50px" height="50px"><g transform="translate(-7.68,-7.68) scale(1.06,1.06)"><g fill="#ffffff" fill-rule="nonzero" stroke="none" stroke-width="1" stroke-linecap="butt" stroke-linejoin="miter" stroke-miterlimit="10" stroke-dasharray="" stroke-dashoffset="0" font-family="none" font-weight="none" font-size="none" text-anchor="none" style="mix-blend-mode: normal"><path d="M95.32377,177.50943c-9.29672,0 -16.83321,-7.53648 -16.83321,-16.83321v-65.35245c0,-9.29672 7.53648,-16.83321 16.83321,-16.83321h65.35245c9.29672,0 16.83321,7.53648 16.83321,16.83321v65.35245c0,9.29672 -7.53648,16.83321 -16.83321,16.83321z" id="shape"></path></g><g fill="#000000" fill-rule="nonzero" stroke="none" stroke-width="1" stroke-linecap="butt" stroke-linejoin="miter" stroke-miterlimit="10" stroke-dasharray="" stroke-dashoffset="0" font-family="none" font-weight="none" font-size="none" text-anchor="none" style="mix-blend-mode: normal"><g transform="scale(5.12,5.12)"><path d="M25,2c-12.681,0 -23,10.319 -23,23c0,12.681 10.319,23 23,23c12.681,0 23,-10.319 23,-23c0,-12.681 -10.319,-23 -23,-23zM33.71,32.29c0.39,0.39 0.39,1.03 0,1.42c-0.2,0.19 -0.45,0.29 -0.71,0.29c-0.26,0 -0.51,-0.1 -0.71,-0.29l-7.29,-7.29l-7.29,7.29c-0.2,0.19 -0.45,0.29 -0.71,0.29c-0.26,0 -0.51,-0.1 -0.71,-0.29c-0.39,-0.39 -0.39,-1.03 0,-1.42l7.29,-7.29l-7.29,-7.29c-0.39,-0.39 -0.39,-1.03 0,-1.42c0.39,-0.39 1.03,-0.39 1.42,0l7.29,7.29l7.29,-7.29c0.39,-0.39 1.03,-0.39 1.42,0c0.39,0.39 0.39,1.03 0,1.42l-7.29,7.29z"></path></g></g></g></svg>