<!--suppress ALL -->
<svg xmlns="http://www.w3.org/2000/svg" viewBox="0,0,256,256" width="50px" height="50px"><g fill="#e2a300" fill-rule="nonzero" stroke="none" stroke-width="1" stroke-linecap="butt" stroke-linejoin="miter" stroke-miterlimit="10" stroke-dasharray="" stroke-dashoffset="0" font-family="none" font-size="none" style="mix-blend-mode: normal"><g transform="scale(5.12,5.12)"><path d="M4,2c-0.60156,0 -1,0.39844 -1,1v3c0,0.30078 0.11328,0.48828 0.3125,0.6875l16,17c0.19922,0.19922 0.48828,0.3125 0.6875,0.3125h10c0.30078,0 0.48828,-0.11328 0.6875,-0.3125l16,-17c0.19922,-0.19922 0.3125,-0.38672 0.3125,-0.6875v-3c0,-0.60156 -0.39844,-1 -1,-1zM19,26v15c0,0.39844 0.19922,0.70703 0.5,0.90625l10,6c0.10156,0.10156 0.30078,0.09375 0.5,0.09375c0.19922,0 0.30078,0.00781 0.5,-0.09375c0.30078,-0.19922 0.5,-0.50781 0.5,-0.90625v-21z"></path></g></g></svg>