<svg xmlns="http://www.w3.org/2000/svg" xmlns:xlink="http://www.w3.org/1999/xlink" viewBox="0,0,256,256" width="50px" height="50px"><g transform="translate(-23.04,-23.04) scale(1.18,1.18)"><g fill="#ffffff" fill-rule="nonzero" stroke="none" stroke-width="1" stroke-linecap="butt" stroke-linejoin="miter" stroke-miterlimit="10" stroke-dasharray="" stroke-dashoffset="0" font-family="none" font-weight="none" font-size="none" text-anchor="none" style="mix-blend-mode: normal"><path d="M83.6122,195.25424c-12.62879,0 -22.86644,-10.23765 -22.86644,-22.86644v-88.77559c0,-12.62879 10.23765,-22.86644 22.86644,-22.86644h88.77559c12.62879,0 22.86644,10.23765 22.86644,22.86644v88.77559c0,12.62879 -10.23765,22.86644 -22.86644,22.86644z" id="shape"></path></g><g fill="#000000" fill-rule="nonzero" stroke="none" stroke-width="1" stroke-linecap="butt" stroke-linejoin="miter" stroke-miterlimit="10" stroke-dasharray="" stroke-dashoffset="0" font-family="none" font-weight="none" font-size="none" text-anchor="none" style="mix-blend-mode: normal"><g transform="scale(5.12,5.12)"><path d="M9,46h32c2.76,0 5,-2.24 5,-5v-32c0,-2.76 -2.24,-5 -5,-5h-32c-2.76,0 -5,2.24 -5,5v32c0,2.76 2.24,5 5,5zM29.29,12.29c0.2,-0.19 0.45,-0.29 0.71,-0.29c0.26,0 0.51,0.1 0.71,0.29c0.39,0.39 0.39,1.03 0,1.42l-11.3,11.29l11.3,11.29c0.39,0.39 0.39,1.03 0,1.42c-0.39,0.39 -1.03,0.39 -1.42,0l-12.7,-12.71z"></path></g></g></g></svg>