<svg xmlns="http://www.w3.org/2000/svg" viewBox="0,0,256,256" width="64px" height="64px"><g transform="translate(-37.12,-37.12) scale(1.29,1.29)"><g fill="#000000" fill-rule="nonzero" stroke="none" stroke-width="1" stroke-linecap="butt" stroke-linejoin="miter" stroke-miterlimit="10" stroke-dasharray="" stroke-dashoffset="0" font-family="none" font-size="none" style="mix-blend-mode: normal"><g transform="scale(3.55556,3.55556)"><path d="M18,13c-4.96,0 -9,4.04 -9,9v16c0,4.96 4.04,9 9,9h2v2c0,4.962 4.037,9 9,9h24c4.963,0 9,-4.038 9,-9v-16c0,-4.962 -4.037,-9 -9,-9h-2v-2c0,-4.96 -4.04,-9 -9,-9zM18,21h24c0.55,0 1,0.45 1,1v2h-14c-4.963,0 -9,4.038 -9,9v6h-2c-0.55,0 -1,-0.45 -1,-1v-16c0,-0.55 0.45,-1 1,-1zM29,32h24c0.552,0 1,0.449 1,1v14.05273l-5.89258,-5.29883c-1.118,-1.005 -2.81564,-1.00409 -3.93164,0.00391l-5.4707,4.94336l-3.13086,-2.67773c-1.102,-0.942 -2.72717,-0.94014 -3.82617,0.00586l-3.74805,3.23242v-14.26172c0,-0.551 0.448,-1 1,-1zM34,34c-1.657,0 -3,1.343 -3,3c0,1.657 1.343,3 3,3c1.657,0 3,-1.343 3,-3c0,-1.657 -1.343,-3 -3,-3z"></path></g></g></g></svg>