<svg xmlns="http://www.w3.org/2000/svg" viewBox="0,0,256,256" width="64px" height="64px"><g transform="translate(-28.16,-28.16) scale(1.22,1.22)"><g fill="#000000" fill-rule="nonzero" stroke="none" stroke-width="1" stroke-linecap="butt" stroke-linejoin="miter" stroke-miterlimit="10" stroke-dasharray="" stroke-dashoffset="0" font-family="none" font-size="none" style="mix-blend-mode: normal"><g transform="scale(3.55556,3.55556)"><path d="M26,12c-5.51,0 -10,4.49 -10,10v28c0,5.51 4.49,10 10,10h10.28906c-1.85,-2.2 -3.04,-4.97 -3.25,-8h-7.03906c-1.1,0 -2,-0.9 -2,-2v-28c0,-1.1 0.9,-2 2,-2h20c1.1,0 2,0.9 2,2v15.03906c3.03,0.21 5.8,1.4 8,3.25v-18.28906c0,-5.51 -4.49,-10 -10,-10zM29,23c-1.104,0 -2,0.896 -2,2c0,1.104 0.896,2 2,2h14c1.104,0 2,-0.896 2,-2c0,-1.104 -0.896,-2 -2,-2zM29,30c-1.104,0 -2,0.896 -2,2c0,1.104 0.896,2 2,2h14c1.104,0 2,-0.896 2,-2c0,-1.104 -0.896,-2 -2,-2zM29,37c-1.1,0 -2,0.9 -2,2c0,1.1 0.9,2 2,2h8.21094c1.86,-1.82 4.21961,-3.12945 6.84961,-3.68945c-0.31,-0.2 -0.67055,-0.31055 -1.06055,-0.31055zM47,41c-5.514,0 -10,4.486 -10,10c0,5.514 4.486,10 10,10c1.666,0 3.23514,-0.41467 4.61914,-1.13867l4.25977,4.25977c0.586,0.586 1.35309,0.87891 2.12109,0.87891c0.768,0 1.53509,-0.29386 2.12109,-0.88086c1.172,-1.171 1.172,-3.06923 0,-4.24023l-4.25977,-4.26172c0.724,-1.383 1.13867,-2.95119 1.13867,-4.61719c0,-5.514 -4.486,-10 -10,-10zM29,44c-1.1,0 -2,0.9 -2,2c0,1.1 0.9,2 2,2h4.32031c0.32,-1.43 0.85055,-2.77 1.56055,-4zM47,46c2.757,0 5,2.243 5,5c0,2.757 -2.243,5 -5,5c-2.757,0 -5,-2.243 -5,-5c0,-2.757 2.243,-5 5,-5zM47,48c-1.65,0 -3,1.35 -3,3c0,0.35 0.05969,0.69 0.17969,1h2.82031c1.1,0 2,-0.9 2,-2c0,-1 -0.73922,-1.83047 -1.69922,-1.98047c-0.09,-0.01 -0.20078,-0.01953 -0.30078,-0.01953z"></path></g></g></g></svg>