<svg xmlns="http://www.w3.org/2000/svg" viewBox="0,0,256,256" width="64px" height="64px"><g transform="translate(-15.36,-15.36) scale(1.12,1.12)"><g fill="#000000" fill-rule="nonzero" stroke="none" stroke-width="1" stroke-linecap="butt" stroke-linejoin="miter" stroke-miterlimit="10" stroke-dasharray="" stroke-dashoffset="0" font-family="none" font-size="none" style="mix-blend-mode: normal"><g transform="scale(3.55556,3.55556)"><path d="M17,40.5c-3.584,0 -6.5,-3.14 -6.5,-7c0,-3.86 2.916,-7 6.5,-7c3.584,0 6.5,3.14 6.5,7c0,3.86 -2.916,7 -6.5,7zM17,31.5c-0.813,0 -1.5,0.916 -1.5,2c0,1.084 0.687,2 1.5,2c0.813,0 1.5,-0.916 1.5,-2c0,-1.084 -0.687,-2 -1.5,-2zM25.409,56c-4.206,0 -12.618,0 -16.824,0c-2.337,0 -3.749,-2.078 -3.568,-3.966c0.546,-5.719 5.695,-10.034 11.983,-10.034c6.282,0 11.439,4.31 11.983,10.026c0.179,1.871 -1.218,3.974 -3.574,3.974zM12.187,50h9.628c-1.109,-1.215 -2.868,-2 -4.814,-2c-1.946,0 -3.706,0.785 -4.814,2zM36,28.5c-3.584,0 -6.5,-3.14 -6.5,-7c0,-3.86 2.916,-7 6.5,-7c3.584,0 6.5,3.14 6.5,7c0,3.86 -2.916,7 -6.5,7zM36,19.5c-0.813,0 -1.5,0.916 -1.5,2c0,1.084 0.687,2 1.5,2c0.813,0 1.5,-0.916 1.5,-2c0,-1.084 -0.687,-2 -1.5,-2zM44.409,44c-0.001,-0.001 -16.823,-0.001 -16.824,0c-2.337,0 -3.749,-2.078 -3.568,-3.966c0.544,-5.72 5.695,-10.034 11.983,-10.034c6.282,0 11.435,4.31 11.983,10.026c0.177,1.871 -1.218,3.974 -3.574,3.974zM31.187,38h9.628c-1.109,-1.215 -2.868,-2 -4.814,-2c-1.946,0 -3.706,0.785 -4.814,2zM55,40.5c-3.584,0 -6.5,-3.14 -6.5,-7c0,-3.86 2.916,-7 6.5,-7c3.584,0 6.5,3.14 6.5,7c0,3.86 -2.916,7 -6.5,7zM55,31.5c-0.813,0 -1.5,0.916 -1.5,2c0,1.084 0.687,2 1.5,2c0.813,0 1.5,-0.916 1.5,-2c0,-1.084 -0.687,-2 -1.5,-2zM63.409,56c-4.206,0 -12.618,0 -16.824,0c-2.337,0 -3.749,-2.078 -3.568,-3.966c0.546,-5.719 5.695,-10.034 11.983,-10.034c6.282,0 11.439,4.31 11.983,10.026c0.179,1.871 -1.218,3.974 -3.574,3.974zM50.187,50h9.628c-1.109,-1.215 -2.868,-2 -4.814,-2c-1.946,0 -3.706,0.785 -4.814,2z"></path></g></g></g></svg>